# xmcd CD database file
#
# Track frame offsets:
#	150
#	18088
#	50335
#	68706
#	83260
#
# Disc length: 1398 seconds
#
# Revision: 1
# Processed by: cddbd v1.5.2PL0 Copyright (c) Steve Scherf et al.
# Submitted via: CDex 1.70beta3
#
DISCID=2a057405
DTITLE=Sonny Stitt - The Cool Jazz Collection 63
DYEAR=1900
DGENRE=Jazz
TTITLE0=Cool Blues
TTITLE1=Moten Swing
TTITLE2=I Can't Give You Anything But Love
TTITLE3=I Want to Be Happy
TTITLE4=Easy Living
EXTD=
EXTT0=
EXTT1=
EXTT2=
EXTT3=
EXTT4=
PLAYORDER=
